# WaveFront *.obj file (generated by CINEMA 4D)

mtllib ./lowshit.mtl

v 342.57107543945312 -50 -45.82001495361328
v 342.57107543945312 50 -45.82001495361328
v 342.13470458984375 -50 -42.04473114013672
v 342.13470458984375 50 -42.04473114013672
v 341.75186157226562 -50 -38.26363754272461
v 341.75186157226562 50 -38.26363754272461
v 341.42269897460938 -50 -34.47749710083008
v 341.42269897460938 50 -34.47749710083008
v 341.14727783203125 -50 -30.68707084655762
v 341.14727783203125 50 -30.68707084655762
v 340.92559814453125 -50 -26.89311790466309
v 340.92559814453125 50 -26.89311790466309
v 340.75775146484375 -50 -23.09640312194824
v 340.75775146484375 50 -23.09640312194824
v 340.64376831054688 -50 -19.29769134521484
v 340.64376831054688 50 -19.29769134521484
v 340.58364868164062 -50 -15.49774360656738
v 340.58364868164062 50 -15.49774360656738
v 340.57745361328125 -50 -11.69732570648193
v 340.57745361328125 50 -11.69732570648193
v 340.6251220703125 -50 -7.8972020149231
v 340.6251220703125 50 -7.8972020149231
v 340.7266845703125 -50 -4.09813690185547
v 340.7266845703125 50 -4.09813690185547
v 340.882080078125 -50 -0.30089327692986
v 340.882080078125 50 -0.30089327692986
v 341.09133911132812 -50 3.49376440048218
v 341.09133911132812 50 3.49376440048218
v 341.3543701171875 -50 7.28507328033447
v 341.3543701171875 50 7.28507328033447
v 341.671142578125 -50 11.0722713470459
v 341.671142578125 50 11.0722713470459
v 342.04159545898438 -50 14.85459613800049
v 342.04159545898438 50 14.85459613800049
# 34 vertices

vn 0 0 0
vn -0.99338608980179 0 -0.11482175439596
vn -0.99417454004288 0 -0.10778201371431
vn 0.99338608980179 0 0.11482175439596
vn 0.99417454004288 0 0.10778201371431
vn -0.9956026673317 0 -0.09367685765028
vn 0.9956026673317 0 0.09367685765028
vn -0.9968313574791 0 -0.0795436874032
vn 0.9968313574791 0 0.0795436874032
vn -0.99785900115967 0 -0.06540238857269
vn 0.99785900115967 0 0.06540238857269
vn -0.99868589639664 0 -0.05124904587865
vn 0.99868589639664 0 0.05124904587865
vn -0.99931234121323 0 -0.03707967698574
vn 0.99931234121323 0 0.03707967698574
vn -0.9997376203537 0 -0.02290629036725
vn 0.9997376203537 0 0.02290629036725
vn -0.99996191263199 0 -0.00872486643493
vn 0.99996191263199 0 0.00872486643493
vn -0.99998509883881 0 0.00545655563474
vn 0.99998509883881 0 -0.00545655563474
vn -0.9998072385788 0 0.01963396184146
vn 0.9998072385788 0 -0.01963396184146
vn -0.9994283914566 0 0.03380735591054
vn 0.9994283914566 0 -0.03380735591054
vn -0.99884843826294 0 0.04797673225403
vn 0.99884843826294 0 -0.04797673225403
vn -0.99806755781174 0 0.06213808059692
vn 0.99806755781174 0 -0.06213808059692
vn -0.99708616733551 0 0.07628337293863
vn 0.99708616733551 0 -0.07628337293863
vn -0.99590402841568 0 0.09041659533978
vn 0.99590402841568 0 -0.09041659533978
vn -0.99523782730103 0 0.09747675061226
vn 0.99523782730103 0 -0.09747675061226
# 35 normals

vt 0 0 0
vt 0.0625 0 0
vt 0 1 0
vt 0.0625 1 0
vt 0.125 0 0
vt 0.125 1 0
vt 0.1875 0 0
vt 0.1875 1 0
vt 0.25 0 0
vt 0.25 1 0
vt 0.3125 0 0
vt 0.3125 1 0
vt 0.375 0 0
vt 0.375 1 0
vt 0.4375 0 0
vt 0.4375 1 0
vt 0.5 0 0
vt 0.5 1 0
vt 0.5625 0 0
vt 0.5625 1 0
vt 0.625 0 0
vt 0.625 1 0
vt 0.6875 0 0
vt 0.6875 1 0
vt 0.75 0 0
vt 0.75 1 0
vt 0.8125 0 0
vt 0.8125 1 0
vt 0.875 0 0
vt 0.875 1 0
vt 0.9375 0 0
vt 0.9375 1 0
vt 1 0 0
vt 1 1 0
# 34 texture coordinates

o Труба
usemtl default
f 3/2/1 1/1/1 1/1/1
f 3/2/3 4/4/3 2/3/2 1/1/2
f 4/2/1 2/1/1 2/1/1
f 4/2/5 3/4/5 1/3/4 2/1/4
f 5/5/1 3/2/1 3/2/1
f 5/5/6 6/6/6 4/4/3 3/2/3
f 6/5/1 4/2/1 4/2/1
f 6/5/7 5/6/7 3/4/5 4/2/5
f 7/7/1 5/5/1 5/5/1
f 7/7/8 8/8/8 6/6/6 5/5/6
f 8/7/1 6/5/1 6/5/1
f 8/7/9 7/8/9 5/6/7 6/5/7
f 9/9/1 7/7/1 7/7/1
f 9/9/10 10/10/10 8/8/8 7/7/8
f 10/9/1 8/7/1 8/7/1
f 10/9/11 9/10/11 7/8/9 8/7/9
f 11/11/1 9/9/1 9/9/1
f 11/11/12 12/12/12 10/10/10 9/9/10
f 12/11/1 10/9/1 10/9/1
f 12/11/13 11/12/13 9/10/11 10/9/11
f 13/13/1 11/11/1 11/11/1
f 13/13/14 14/14/14 12/12/12 11/11/12
f 14/13/1 12/11/1 12/11/1
f 14/13/15 13/14/15 11/12/13 12/11/13
f 15/15/1 13/13/1 13/13/1
f 15/15/16 16/16/16 14/14/14 13/13/14
f 16/15/1 14/13/1 14/13/1
f 16/15/17 15/16/17 13/14/15 14/13/15
f 17/17/1 15/15/1 15/15/1
f 17/17/18 18/18/18 16/16/16 15/15/16
f 18/17/1 16/15/1 16/15/1
f 18/17/19 17/18/19 15/16/17 16/15/17
f 19/19/1 17/17/1 17/17/1
f 19/19/20 20/20/20 18/18/18 17/17/18
f 20/19/1 18/17/1 18/17/1
f 20/19/21 19/20/21 17/18/19 18/17/19
f 21/21/1 19/19/1 19/19/1
f 21/21/22 22/22/22 20/20/20 19/19/20
f 22/21/1 20/19/1 20/19/1
f 22/21/23 21/22/23 19/20/21 20/19/21
f 23/23/1 21/21/1 21/21/1
f 23/23/24 24/24/24 22/22/22 21/21/22
f 24/23/1 22/21/1 22/21/1
f 24/23/25 23/24/25 21/22/23 22/21/23
f 25/25/1 23/23/1 23/23/1
f 25/25/26 26/26/26 24/24/24 23/23/24
f 26/25/1 24/23/1 24/23/1
f 26/25/27 25/26/27 23/24/25 24/23/25
f 27/27/1 25/25/1 25/25/1
f 27/27/28 28/28/28 26/26/26 25/25/26
f 28/27/1 26/25/1 26/25/1
f 28/27/29 27/28/29 25/26/27 26/25/27
f 29/29/1 27/27/1 27/27/1
f 29/29/30 30/30/30 28/28/28 27/27/28
f 30/29/1 28/27/1 28/27/1
f 30/29/31 29/30/31 27/28/29 28/27/29
f 31/31/1 29/29/1 29/29/1
f 31/31/32 32/32/32 30/30/30 29/29/30
f 32/31/1 30/29/1 30/29/1
f 32/31/33 31/32/33 29/30/31 30/29/31
f 33/33/1 31/31/1 31/31/1
f 33/33/34 34/34/34 32/32/32 31/31/32
f 34/33/1 32/31/1 32/31/1
f 34/33/35 33/34/35 31/32/33 32/31/33

