# WaveFront *.obj file (generated by CINEMA 4D)

mtllib ./obod1.mtl

v 439.91558837890625 -50 -221.43414306640625
v 439.91558837890625 50 -221.43414306640625
v 429.97518920898438 -50 -212.97560119628906
v 429.97518920898438 50 -212.97560119628906
v 420.45840454101562 -50 -204.04310607910156
v 420.45840454101562 50 -204.04310607910156
v 411.3878173828125 -50 -194.65785217285156
v 411.3878173828125 50 -194.65785217285156
v 402.784912109375 -50 -184.84211730957031
v 402.784912109375 50 -184.84211730957031
v 394.67013549804688 -50 -174.61915588378906
v 394.67013549804688 50 -174.61915588378906
v 387.06271362304688 -50 -164.01322937011719
v 387.06271362304688 50 -164.01322937011719
v 379.98068237304688 -50 -153.04949951171875
v 379.98068237304688 50 -153.04949951171875
v 373.44085693359375 -50 -141.75396728515625
v 373.44085693359375 50 -141.75396728515625
v 367.45870971679688 -50 -130.15341186523438
v 367.45870971679688 50 -130.15341186523438
v 362.04849243164062 -50 -118.27536010742188
v 362.04849243164062 50 -118.27536010742188
v 357.22299194335938 -50 -106.14798736572266
v 357.22299194335938 50 -106.14798736572266
v 352.99368286132812 -50 -93.80005645751953
v 352.99368286132812 50 -93.80005645751953
v 349.37057495117188 -50 -81.26084899902344
v 349.37057495117188 50 -81.26084899902344
v 346.36224365234375 -50 -68.56011962890625
v 346.36224365234375 50 -68.56011962890625
v 343.97586059570312 -50 -55.72798156738281
v 343.97586059570312 50 -55.72798156738281
v 342.21707153320312 -50 -42.79487228393555
v 342.21707153320312 50 -42.79487228393555
v 341.09005737304688 -50 -29.79147148132324
v 341.09005737304688 50 -29.79147148132324
v 340.59750366210938 -50 -16.74862098693848
v 340.59750366210938 50 -16.74862098693848
v 340.74053955078125 -50 -3.69725489616394
v 340.74053955078125 50 -3.69725489616394
v 341.51882934570312 -50 9.33166790008545
v 341.51882934570312 50 9.33166790008545
v 342.93057250976562 -50 22.3072452545166
v 342.93057250976562 50 22.3072452545166
v 344.97238159179688 -50 35.19869995117188
v 344.97238159179688 50 35.19869995117188
v 347.639404296875 -50 47.97545623779297
v 347.639404296875 50 47.97545623779297
v 350.92535400390625 -50 60.60720825195312
v 350.92535400390625 50 60.60720825195312
v 354.82241821289062 -50 73.06399536132812
v 354.82241821289062 50 73.06399536132812
v 359.32135009765625 -50 85.31626892089844
v 359.32135009765625 50 85.31626892089844
v 364.41146850585938 -50 97.33497619628906
v 364.41146850585938 50 97.33497619628906
v 370.08071899414062 -50 109.09159851074219
v 370.08071899414062 50 109.09159851074219
v 376.31564331054688 -50 120.55825042724609
v 376.31564331054688 50 120.55825042724609
v 383.10147094726562 -50 131.70774841308594
v 383.10147094726562 50 131.70774841308594
v 390.42208862304688 -50 142.51364135742188
v 390.42208862304688 50 142.51364135742188
v 398.2601318359375 -50 152.95028686523438
v 398.2601318359375 50 152.95028686523438
v 406.59701538085938 -50 162.99293518066406
v 406.59701538085938 50 162.99293518066406
v 415.4129638671875 -50 172.61778259277344
v 415.4129638671875 50 172.61778259277344
v 424.68707275390625 -50 181.80198669433594
v 424.68707275390625 50 181.80198669433594
v 434.3973388671875 -50 190.52375793457031
v 434.3973388671875 50 190.52375793457031
v 444.52072143554688 -50 198.76242065429688
v 444.52072143554688 50 198.76242065429688
v 455.03323364257812 -50 206.49842834472656
v 455.03323364257812 50 206.49842834472656
v 465.909912109375 -50 213.71343994140625
v 465.909912109375 50 213.71343994140625
v 477.125 -50 220.39031982421875
v 477.125 50 220.39031982421875
v 488.65185546875 -50 226.51325988769531
v 488.65185546875 50 226.51325988769531
v 500.463134765625 -50 232.06771850585938
v 500.463134765625 50 232.06771850585938
v 512.53082275390625 -50 237.04052734375
v 512.53082275390625 50 237.04052734375
# 88 vertices

vn 0 0 0
vn -0.64805763959885 0 -0.76159125566483
vn -0.66641122102737 0 -0.74558436870575
vn 0.64805763959885 0 0.76159125566483
vn 0.66641122102737 0 0.74558436870575
vn -0.70192205905914 0 -0.71225374937058
vn 0.70192205905914 0 0.71225374937058
vn -0.73576712608337 0 -0.6772346496582
vn 0.73576712608337 0 0.6772346496582
vn -0.76786744594574 0 -0.64060872793198
vn 0.76786744594574 0 0.64060872793198
vn -0.7981470823288 0 -0.60246258974075
vn 0.7981470823288 0 0.60246258974075
vn -0.82653278112412 0 -0.56288862228394
vn 0.82653278112412 0 0.56288862228394
vn -0.85295814275742 0 -0.52197927236557
vn 0.85295814275742 0 0.52197927236557
vn -0.87736022472382 0 -0.47983229160309
vn 0.87736022472382 0 0.47983229160309
vn -0.89968174695969 0 -0.43654644489288
vn 0.89968174695969 0 0.43654644489288
vn -0.91986936330795 0 -0.39222481846809
vn 0.91986936330795 0 0.39222481846809
vn -0.93787497282028 0 -0.34697338938713
vn 0.93787497282028 0 0.34697338938713
vn -0.95365613698959 0 -0.30089861154556
vn 0.95365613698959 0 0.30089861154556
vn -0.96717488765717 0 -0.25411158800125
vn 0.96717488765717 0 0.25411158800125
vn -0.97839987277985 0 -0.20672130584717
vn 0.97839987277985 0 0.20672130584717
vn -0.98730438947678 0 -0.15883980691433
vn 0.98730438947678 0 0.15883980691433
vn -0.99386703968048 0 -0.11058174818754
vn 0.99386703968048 0 0.11058174818754
vn -0.99807238578796 0 -0.0620606020093
vn 0.99807238578796 0 0.0620606020093
vn -0.99991029500961 0 -0.01339325588197
vn 0.99991029500961 0 0.01339325588197
vn -0.99937659502029 0 0.03530449420214
vn 0.99937659502029 0 -0.03530449420214
vn -0.9964724779129 0 0.08392038196325
vn 0.9964724779129 0 -0.08392038196325
vn -0.99120473861694 0 0.1323374658823
vn 0.99120473861694 0 -0.1323374658823
vn -0.98358619213104 0 0.18043881654739
vn 0.98358619213104 0 -0.18043881654739
vn -0.97363460063934 0 0.22811335325241
vn 0.97363460063934 0 -0.22811335325241
vn -0.96137338876724 0 0.27524754405022
vn 0.96137338876724 0 -0.27524754405022
vn -0.94683212041855 0 0.32172808051109
vn 0.94683212041855 0 -0.32172808051109
vn -0.93004524707794 0 0.36744499206543
vn 0.93004524707794 0 -0.36744499206543
vn -0.91105234622955 0 0.41229072213173
vn 0.91105234622955 0 -0.41229072213173
vn -0.8898983001709 0 0.45615899562836
vn 0.8898983001709 0 -0.45615899562836
vn -0.86663353443146 0 0.49894523620605
vn 0.86663353443146 0 -0.49894523620605
vn -0.84131330251694 0 0.5405478477478
vn 0.84131330251694 0 -0.5405478477478
vn -0.81399762630463 0 0.5808681845665
vn 0.81399762630463 0 -0.5808681845665
vn -0.78475111722946 0 0.61981099843979
vn 0.78475111722946 0 -0.61981099843979
vn -0.75364345312119 0 0.65728348493576
vn 0.75364345312119 0 -0.65728348493576
vn -0.7207482457161 0 0.69319695234299
vn 0.7207482457161 0 -0.69319695234299
vn -0.68614310026169 0 0.72746658325195
vn 0.68614310026169 0 -0.72746658325195
vn -0.64991092681885 0 0.76001036167145
vn 0.64991092681885 0 -0.76001036167145
vn -0.61213707923889 0 0.79075163602829
vn 0.61213707923889 0 -0.79075163602829
vn -0.57291150093079 0 0.8196172118187
vn 0.57291150093079 0 -0.8196172118187
vn -0.53232640028 0 0.84653919935226
vn 0.53232640028 0 -0.84653919935226
vn -0.49047887325287 0 0.87145310640335
vn 0.49047887325287 0 -0.87145310640335
vn -0.44746893644333 0 0.89429944753647
vn 0.44746893644333 0 -0.89429944753647
vn -0.40339732170105 0 0.91502493619919
vn 0.40339732170105 0 -0.91502493619919
vn -0.38099616765976 0 0.92457664012909
vn 0.38099616765976 0 -0.92457664012909
# 89 normals

vt 0 0 0
vt 0.02325581386685 0 0
vt 0 1 0
vt 0.02325581386685 1 0
vt 0.04651162773371 0 0
vt 0.04651162773371 1 0
vt 0.06976744532585 0 0
vt 0.06976744532585 1 0
vt 0.09302325546741 0 0
vt 0.09302325546741 1 0
vt 0.11627906560898 0 0
vt 0.11627906560898 1 0
vt 0.1395348906517 0 0
vt 0.1395348906517 1 0
vt 0.16279068589211 0 0
vt 0.16279068589211 1 0
vt 0.18604651093483 0 0
vt 0.18604651093483 1 0
vt 0.20930230617523 0 0
vt 0.20930230617523 1 0
vt 0.23255813121796 0 0
vt 0.23255813121796 1 0
vt 0.25581395626068 0 0
vt 0.25581395626068 1 0
vt 0.27906978130341 0 0
vt 0.27906978130341 1 0
vt 0.30232554674149 0 0
vt 0.30232554674149 1 0
vt 0.32558137178421 0 0
vt 0.32558137178421 1 0
vt 0.34883719682693 0 0
vt 0.34883719682693 1 0
vt 0.37209302186966 0 0
vt 0.37209302186966 1 0
vt 0.39534884691238 0 0
vt 0.39534884691238 1 0
vt 0.41860461235046 0 0
vt 0.41860461235046 1 0
vt 0.44186043739319 0 0
vt 0.44186043739319 1 0
vt 0.46511626243591 0 0
vt 0.46511626243591 1 0
vt 0.48837208747864 0 0
vt 0.48837208747864 1 0
vt 0.51162791252136 0 0
vt 0.51162791252136 1 0
vt 0.53488373756409 0 0
vt 0.53488373756409 1 0
vt 0.55813956260681 0 0
vt 0.55813956260681 1 0
vt 0.58139526844025 0 0
vt 0.58139526844025 1 0
vt 0.60465109348297 0 0
vt 0.60465109348297 1 0
vt 0.6279069185257 0 0
vt 0.6279069185257 1 0
vt 0.65116274356842 0 0
vt 0.65116274356842 1 0
vt 0.67441856861114 0 0
vt 0.67441856861114 1 0
vt 0.69767439365387 0 0
vt 0.69767439365387 1 0
vt 0.72093021869659 0 0
vt 0.72093021869659 1 0
vt 0.74418604373932 0 0
vt 0.74418604373932 1 0
vt 0.76744186878204 0 0
vt 0.76744186878204 1 0
vt 0.79069769382477 0 0
vt 0.79069769382477 1 0
vt 0.8139533996582 0 0
vt 0.8139533996582 1 0
vt 0.83720922470093 0 0
vt 0.83720922470093 1 0
vt 0.86046504974365 0 0
vt 0.86046504974365 1 0
vt 0.88372087478638 0 0
vt 0.88372087478638 1 0
vt 0.9069766998291 0 0
vt 0.9069766998291 1 0
vt 0.93023252487183 0 0
vt 0.93023252487183 1 0
vt 0.95348834991455 0 0
vt 0.95348834991455 1 0
vt 0.97674417495728 0 0
vt 0.97674417495728 1 0
vt 1 0 0
vt 1 1 0
# 88 texture coordinates

o Труба
usemtl default
f 3/2/1 1/1/1 1/1/1
f 3/2/3 4/4/3 2/3/2 1/1/2
f 4/2/1 2/1/1 2/1/1
f 4/2/5 3/4/5 1/3/4 2/1/4
f 5/5/1 3/2/1 3/2/1
f 5/5/6 6/6/6 4/4/3 3/2/3
f 6/5/1 4/2/1 4/2/1
f 6/5/7 5/6/7 3/4/5 4/2/5
f 7/7/1 5/5/1 5/5/1
f 7/7/8 8/8/8 6/6/6 5/5/6
f 8/7/1 6/5/1 6/5/1
f 8/7/9 7/8/9 5/6/7 6/5/7
f 9/9/1 7/7/1 7/7/1
f 9/9/10 10/10/10 8/8/8 7/7/8
f 10/9/1 8/7/1 8/7/1
f 10/9/11 9/10/11 7/8/9 8/7/9
f 11/11/1 9/9/1 9/9/1
f 11/11/12 12/12/12 10/10/10 9/9/10
f 12/11/1 10/9/1 10/9/1
f 12/11/13 11/12/13 9/10/11 10/9/11
f 13/13/1 11/11/1 11/11/1
f 13/13/14 14/14/14 12/12/12 11/11/12
f 14/13/1 12/11/1 12/11/1
f 14/13/15 13/14/15 11/12/13 12/11/13
f 15/15/1 13/13/1 13/13/1
f 15/15/16 16/16/16 14/14/14 13/13/14
f 16/15/1 14/13/1 14/13/1
f 16/15/17 15/16/17 13/14/15 14/13/15
f 17/17/1 15/15/1 15/15/1
f 17/17/18 18/18/18 16/16/16 15/15/16
f 18/17/1 16/15/1 16/15/1
f 18/17/19 17/18/19 15/16/17 16/15/17
f 19/19/1 17/17/1 17/17/1
f 19/19/20 20/20/20 18/18/18 17/17/18
f 20/19/1 18/17/1 18/17/1
f 20/19/21 19/20/21 17/18/19 18/17/19
f 21/21/1 19/19/1 19/19/1
f 21/21/22 22/22/22 20/20/20 19/19/20
f 22/21/1 20/19/1 20/19/1
f 22/21/23 21/22/23 19/20/21 20/19/21
f 23/23/1 21/21/1 21/21/1
f 23/23/24 24/24/24 22/22/22 21/21/22
f 24/23/1 22/21/1 22/21/1
f 24/23/25 23/24/25 21/22/23 22/21/23
f 25/25/1 23/23/1 23/23/1
f 25/25/26 26/26/26 24/24/24 23/23/24
f 26/25/1 24/23/1 24/23/1
f 26/25/27 25/26/27 23/24/25 24/23/25
f 27/27/1 25/25/1 25/25/1
f 27/27/28 28/28/28 26/26/26 25/25/26
f 28/27/1 26/25/1 26/25/1
f 28/27/29 27/28/29 25/26/27 26/25/27
f 29/29/1 27/27/1 27/27/1
f 29/29/30 30/30/30 28/28/28 27/27/28
f 30/29/1 28/27/1 28/27/1
f 30/29/31 29/30/31 27/28/29 28/27/29
f 31/31/1 29/29/1 29/29/1
f 31/31/32 32/32/32 30/30/30 29/29/30
f 32/31/1 30/29/1 30/29/1
f 32/31/33 31/32/33 29/30/31 30/29/31
f 33/33/1 31/31/1 31/31/1
f 33/33/34 34/34/34 32/32/32 31/31/32
f 34/33/1 32/31/1 32/31/1
f 34/33/35 33/34/35 31/32/33 32/31/33
f 35/35/1 33/33/1 33/33/1
f 35/35/36 36/36/36 34/34/34 33/33/34
f 36/35/1 34/33/1 34/33/1
f 36/35/37 35/36/37 33/34/35 34/33/35
f 37/37/1 35/35/1 35/35/1
f 37/37/38 38/38/38 36/36/36 35/35/36
f 38/37/1 36/35/1 36/35/1
f 38/37/39 37/38/39 35/36/37 36/35/37
f 39/39/1 37/37/1 37/37/1
f 39/39/40 40/40/40 38/38/38 37/37/38
f 40/39/1 38/37/1 38/37/1
f 40/39/41 39/40/41 37/38/39 38/37/39
f 41/41/1 39/39/1 39/39/1
f 41/41/42 42/42/42 40/40/40 39/39/40
f 42/41/1 40/39/1 40/39/1
f 42/41/43 41/42/43 39/40/41 40/39/41
f 43/43/1 41/41/1 41/41/1
f 43/43/44 44/44/44 42/42/42 41/41/42
f 44/43/1 42/41/1 42/41/1
f 44/43/45 43/44/45 41/42/43 42/41/43
f 45/45/1 43/43/1 43/43/1
f 45/45/46 46/46/46 44/44/44 43/43/44
f 46/45/1 44/43/1 44/43/1
f 46/45/47 45/46/47 43/44/45 44/43/45
f 47/47/1 45/45/1 45/45/1
f 47/47/48 48/48/48 46/46/46 45/45/46
f 48/47/1 46/45/1 46/45/1
f 48/47/49 47/48/49 45/46/47 46/45/47
f 49/49/1 47/47/1 47/47/1
f 49/49/50 50/50/50 48/48/48 47/47/48
f 50/49/1 48/47/1 48/47/1
f 50/49/51 49/50/51 47/48/49 48/47/49
f 51/51/1 49/49/1 49/49/1
f 51/51/52 52/52/52 50/50/50 49/49/50
f 52/51/1 50/49/1 50/49/1
f 52/51/53 51/52/53 49/50/51 50/49/51
f 53/53/1 51/51/1 51/51/1
f 53/53/54 54/54/54 52/52/52 51/51/52
f 54/53/1 52/51/1 52/51/1
f 54/53/55 53/54/55 51/52/53 52/51/53
f 55/55/1 53/53/1 53/53/1
f 55/55/56 56/56/56 54/54/54 53/53/54
f 56/55/1 54/53/1 54/53/1
f 56/55/57 55/56/57 53/54/55 54/53/55
f 57/57/1 55/55/1 55/55/1
f 57/57/58 58/58/58 56/56/56 55/55/56
f 58/57/1 56/55/1 56/55/1
f 58/57/59 57/58/59 55/56/57 56/55/57
f 59/59/1 57/57/1 57/57/1
f 59/59/60 60/60/60 58/58/58 57/57/58
f 60/59/1 58/57/1 58/57/1
f 60/59/61 59/60/61 57/58/59 58/57/59
f 61/61/1 59/59/1 59/59/1
f 61/61/62 62/62/62 60/60/60 59/59/60
f 62/61/1 60/59/1 60/59/1
f 62/61/63 61/62/63 59/60/61 60/59/61
f 63/63/1 61/61/1 61/61/1
f 63/63/64 64/64/64 62/62/62 61/61/62
f 64/63/1 62/61/1 62/61/1
f 64/63/65 63/64/65 61/62/63 62/61/63
f 65/65/1 63/63/1 63/63/1
f 65/65/66 66/66/66 64/64/64 63/63/64
f 66/65/1 64/63/1 64/63/1
f 66/65/67 65/66/67 63/64/65 64/63/65
f 67/67/1 65/65/1 65/65/1
f 67/67/68 68/68/68 66/66/66 65/65/66
f 68/67/1 66/65/1 66/65/1
f 68/67/69 67/68/69 65/66/67 66/65/67
f 69/69/1 67/67/1 67/67/1
f 69/69/70 70/70/70 68/68/68 67/67/68
f 70/69/1 68/67/1 68/67/1
f 70/69/71 69/70/71 67/68/69 68/67/69
f 71/71/1 69/69/1 69/69/1
f 71/71/72 72/72/72 70/70/70 69/69/70
f 72/71/1 70/69/1 70/69/1
f 72/71/73 71/72/73 69/70/71 70/69/71
f 73/73/1 71/71/1 71/71/1
f 73/73/74 74/74/74 72/72/72 71/71/72
f 74/73/1 72/71/1 72/71/1
f 74/73/75 73/74/75 71/72/73 72/71/73
f 75/75/1 73/73/1 73/73/1
f 75/75/76 76/76/76 74/74/74 73/73/74
f 76/75/1 74/73/1 74/73/1
f 76/75/77 75/76/77 73/74/75 74/73/75
f 77/77/1 75/75/1 75/75/1
f 77/77/78 78/78/78 76/76/76 75/75/76
f 78/77/1 76/75/1 76/75/1
f 78/77/79 77/78/79 75/76/77 76/75/77
f 79/79/1 77/77/1 77/77/1
f 79/79/80 80/80/80 78/78/78 77/77/78
f 80/79/1 78/77/1 78/77/1
f 80/79/81 79/80/81 77/78/79 78/77/79
f 81/81/1 79/79/1 79/79/1
f 81/81/82 82/82/82 80/80/80 79/79/80
f 82/81/1 80/79/1 80/79/1
f 82/81/83 81/82/83 79/80/81 80/79/81
f 83/83/1 81/81/1 81/81/1
f 83/83/84 84/84/84 82/82/82 81/81/82
f 84/83/1 82/81/1 82/81/1
f 84/83/85 83/84/85 81/82/83 82/81/83
f 85/85/1 83/83/1 83/83/1
f 85/85/86 86/86/86 84/84/84 83/83/84
f 86/85/1 84/83/1 84/83/1
f 86/85/87 85/86/87 83/84/85 84/83/85
f 87/87/1 85/85/1 85/85/1
f 87/87/88 88/88/88 86/86/86 85/85/86
f 88/87/1 86/85/1 86/85/1
f 88/87/89 87/88/89 85/86/87 86/85/87

