# WaveFront *.obj file (generated by CINEMA 4D)

mtllib ./buki.mtl

v -112.95387268066406 0 0
v 0 0 112.95387268066406
v 112.95387268066406 0 0
v 0 0 -112.95387268066406
v 79.87045288085938 -22.53160667419434 0
v 0 -31.86450386047363 0
v 0 -22.53160667419434 79.87045288085938
v -79.87045288085938 0 79.87045288085938
v -79.87045288085938 -22.53160667419434 0
v -79.87045288085938 0 -79.87045288085938
v 79.87045288085938 0 79.87045288085938
v 0 -22.53160667419434 -79.87045288085938
v 79.87045288085938 0 -79.87045288085938
# 13 vertices

vn 0.32208523154259 -0.9467106461525 0
vn 0.35377964377403 -0.86584061384201 0.35377964377403
vn 0.56290578842163 -0.82652109861374 0
vn 0 0 0
vn 0.0000000038893 -0.94671070575714 0.32208520174026
vn 0 -0.82652109861374 0.56290578842163
vn -0.32208523154259 -0.9467106461525 0
vn -0.35377964377403 -0.86584061384201 -0.35377964377403
vn -0.56290578842163 -0.82652109861374 0
vn 0 -1 0
vn -0.35377964377403 -0.86584061384201 0.35377964377403
vn -0.0000000038893 -0.94671070575714 -0.32208520174026
vn 0 -0.82652109861374 -0.56290578842163
vn 0.35377964377403 -0.86584061384201 -0.35377964377403
# 14 normals

vt 0.75049996376038 0.56499999761581 0
vt 0.66749995946884 0.70950001478195 0
vt 0.83399999141693 0.70899999141693 0
vt 0 1 0
vt 0.58399987220764 0.56550002098084 0
vt 0.50099992752075 0.71000003814697 0
vt 0.49999994039536 0.42149996757507 0
vt 0.41600000858307 0.2775000333786 0
vt 0.33300000429153 0.42200005054474 0
vt 0.66699993610382 0.4210000038147 0
vt 0.41699993610382 0.56599998474121 0
vt 0.58299994468689 0.27700006961823 0
vt 0.4990000128746 0.13300001621246 0
vt 0.83349996805191 0.42050004005432 0
vt 0.91699999570847 0.56450003385544 0
vt 1 0.42000007629395 0
# 16 texture coordinates

o Сфера
usemtl default
f 3/3/3 11/2/2 5/1/1
f 7/5/5 5/1/1 11/2/2
f 11/2/2 2/6/6 7/5/5
f 1/9/9 10/8/8 9/7/7
f 5/1/1 7/5/5 6/10/10
f 2/6/6 8/11/11 7/5/5
f 9/7/7 7/5/5 8/11/11
f 8/11/11 1/9/9 9/7/7
f 12/12/12 9/7/7 10/8/8
f 10/8/8 4/13/13 12/12/12
f 9/7/7 12/12/12 6/10/10
f 7/5/5 9/7/7 6/10/10
f 4/16/13 13/15/14 12/14/12
f 5/1/1 12/14/12 13/15/14
f 13/15/14 3/3/3 5/1/1
f 12/14/12 5/1/1 6/10/10

